<svg xmlns="http://www.w3.org/2000/svg" width="119.306" height="93" viewBox="0 0 119.306 93">
  <g id="icono2" transform="translate(-15.872 -14.115)">
    <g id="Group_3" data-name="Group 3" transform="translate(15.88 14.115)">
      <g id="Group_2" data-name="Group 2">
        <path id="Path_3" data-name="Path 3" d="M134.857,61.916a2.1,2.1,0,0,0-.734-.735h.126L57.272,14.4a2.094,2.094,0,0,0-2.1,0L17.043,34.768a2.1,2.1,0,0,0-.188,3.654L93.936,86.341a2.094,2.094,0,0,0,2.138.042L134.12,64.794A2.1,2.1,0,0,0,134.857,61.916ZM95.174,82.187,22.221,36.761,56.119,18.6l72.826,44.333Z" transform="translate(-15.88 -14.115)" fill="#e08709"/>
      </g>
    </g>
    <g id="Group_5" data-name="Group 5" transform="translate(15.872 44.728)">
      <g id="Group_4" data-name="Group 4" transform="translate(0 0)">
        <path id="Path_4" data-name="Path 4" d="M134.9,74.123a2.1,2.1,0,0,0-2.872-.777h.126l-36.959,21L19.118,47.032a2.114,2.114,0,1,0-2.264,3.57L93.936,98.526a2.094,2.094,0,0,0,2.138.042L134.12,77A2.11,2.11,0,0,0,134.9,74.123Z" transform="translate(-15.872 -46.703)" fill="#e08709"/>
      </g>
    </g>
    <g id="Group_7" data-name="Group 7" transform="translate(15.872 54.934)">
      <g id="Group_6" data-name="Group 6">
        <path id="Path_5" data-name="Path 5" d="M134.45,84.913a2.1,2.1,0,0,0-2.3-.682l-37.062,21L19.118,57.9a2.114,2.114,0,1,0-2.264,3.57l77.082,47.966a2.094,2.094,0,0,0,2.138.042L134.12,87.869a2.1,2.1,0,0,0,.331-2.956Z" transform="translate(-15.872 -57.568)" fill="#e08709"/>
      </g>
    </g>
    <g id="Group_9" data-name="Group 9" transform="translate(63.143 38.316)">
      <g id="Group_8" data-name="Group 8">
        <path id="Path_6" data-name="Path 6" d="M90.642,40.662a2.094,2.094,0,0,0-2.947-.323,2.144,2.144,0,0,0-.163.147l-2.243,2.1a9.528,9.528,0,0,0-2.348-1.554,6.612,6.612,0,0,0-3.585-.588,5.362,5.362,0,0,0-2.912,1.323A4.58,4.58,0,0,0,74.87,44.56a7.445,7.445,0,0,0,.356,3.4,24.507,24.507,0,0,0,1.09,2.646l-4.193,3.758A3.917,3.917,0,0,1,72,53.926a5.889,5.889,0,0,1,.315-3.006,4.549,4.549,0,0,0,.293-1.409,1.851,1.851,0,0,0-.545-1.239,2.137,2.137,0,0,0-3.081-.231,4.454,4.454,0,0,0-1.321,2.5,7.215,7.215,0,0,0,.376,3.738,10.759,10.759,0,0,0,1.279,2.531l-2.411,2.1a2.1,2.1,0,0,0,1.4,3.675l-.042.063a2.093,2.093,0,0,0,1.409-.525l2.369-2.1a12.38,12.38,0,0,0,2.621,1.89,6.281,6.281,0,0,0,7.463-.945,4.432,4.432,0,0,0,1.409-2.349,6.8,6.8,0,0,0-.105-3.108A17.66,17.66,0,0,0,81.8,51.5v-.126l3.476-3.129a4.9,4.9,0,0,1,0,1.722A9.3,9.3,0,0,0,85.1,51.9a2.1,2.1,0,0,0,.587,1.365,2.451,2.451,0,0,0,1.614.924,2.094,2.094,0,0,0,1.53-.546,3.151,3.151,0,0,0,.9-1.575,5.788,5.788,0,0,0,0-2.331,9.425,9.425,0,0,0-.991-2.843,12.854,12.854,0,0,0-.713-1.176l2.285-2.1A2.1,2.1,0,0,0,90.642,40.662ZM77.763,57.747a2.094,2.094,0,0,1-1.908.316,3.75,3.75,0,0,1-1.174-.525l3.543-3.086a7.384,7.384,0,0,1,.356,1.2A2.227,2.227,0,0,1,77.763,57.747Zm2.075-10.29a4.681,4.681,0,0,1-.188-.987,1.661,1.661,0,0,1,.545-1.533,1.8,1.8,0,0,1,1.785-.315,3.65,3.65,0,0,1,.608.273Z" transform="translate(-66.193 -39.877)" fill="#e08709"/>
      </g>
    </g>
  </g>
</svg>
