<svg xmlns="http://www.w3.org/2000/svg" width="46" height="31" viewBox="0 0 46 31">
  <g id="Objeto_inteligente_vectorial" data-name="Objeto inteligente vectorial" transform="translate(-5.75 -7.431)">
    <g id="Group_27" data-name="Group 27">
      <g id="Group_26" data-name="Group 26">
        <path id="Path_15" data-name="Path 15" d="M47.273,19.449V11.993A4.262,4.262,0,0,0,42.7,7.431H14.655a4.236,4.236,0,0,0-4.575,4.562v7.456c-2.214.245-4.329,1.717-4.329,5.1v5.788A1.761,1.761,0,0,0,7.521,32.1h.59v4.562a1.761,1.761,0,0,0,1.771,1.766h1.673a1.761,1.761,0,0,0,1.771-1.766V32.055H44.174v4.611a1.761,1.761,0,0,0,1.771,1.766h1.673a1.761,1.761,0,0,0,1.771-1.766V32.055h.59a1.761,1.761,0,0,0,1.771-1.766V24.55C51.6,21.165,49.487,19.694,47.273,19.449ZM11.752,11.993h.1a2.513,2.513,0,0,1,2.8-2.8H42.7a2.513,2.513,0,0,1,2.8,2.8V19.4H44.174V15.181A1.761,1.761,0,0,0,42.4,13.415H31.579a1.761,1.761,0,0,0-1.771,1.766V19.4H27.741V15.181a1.761,1.761,0,0,0-1.771-1.766H15.147a1.761,1.761,0,0,0-1.771,1.766V19.4H11.752ZM42.4,15.181V19.4H31.579V15.181Zm-16.334,0V19.4H15.245V15.181ZM11.506,36.665H9.833V32.055h1.673v4.611Zm36.013,0H45.846V32.055h1.673Zm2.312-6.328H7.472v-2.6H49.831Zm0-4.366H7.472V24.55a3.089,3.089,0,0,1,3.395-3.384h35.57a3.07,3.07,0,0,1,3.395,3.384v1.422Z"/>
      </g>
    </g>
  </g>
</svg>
